<svg width="123" height="28" viewBox="0 0 123 28" fill="none" xmlns="http://www.w3.org/2000/svg">
    <path d="M11.074 0.25H12.4123C13.6652 0.25 14.433 0.509902 14.7222 1.02971C14.9021 1.35285 14.9584 1.73912 15.1429 2.05966C16.07 3.6712 16.617 5.18327 16.7507 6.5738C16.7948 6.92675 17.089 7.58854 17.6331 8.58859C18.9861 11.7505 20.0597 14.8094 20.8538 17.7801L22.7362 22.5598C23.4716 24.5746 23.8539 25.8246 23.8539 26.3393V26.3393C23.8539 26.4793 23.7925 26.6121 23.6858 26.7027L23.4194 26.9289C23.1967 27.1179 22.9142 27.2217 22.6221 27.2217H20.7656C19.7361 27.2217 18.9567 26.0011 18.4272 23.5745C17.7218 21.4167 16.8603 20.2606 15.8548 20.1308C15.7276 20.1144 15.599 20.1061 15.4731 20.0816L14.2626 19.8459C14.0887 19.8121 13.9111 19.8015 13.7344 19.8144L11.1629 20.0026C11.045 20.0112 10.9266 20.0094 10.8091 19.9971L10.2185 19.9354C10.0735 19.9202 9.92739 19.921 9.78262 19.9376L9.39999 19.9815C9.2033 20.0041 9.00435 19.9973 8.80965 19.9614L8.72413 19.9457C8.60461 19.9237 8.48296 19.9108 8.36162 19.9177C6.91133 20.0002 5.96428 21.0772 5.50923 23.1377C5.46071 23.3574 5.38258 23.5704 5.27718 23.7692C4.91263 24.4567 4.63107 25.1787 4.42616 25.9416C4.35347 26.2122 4.24398 26.4776 4.0405 26.6702C3.87313 26.8287 3.68029 26.9713 3.46559 27.0992C3.17044 27.275 2.82041 27.3228 2.4783 27.2913L1.88243 27.2364H1.11769C0.540438 27.2364 0.178847 26.8725 0.0200169 26.1317C0.00565797 26.0648 0 25.996 0 25.9276V25.9276C0 25.6407 0.190409 25.1105 0.562256 24.346C0.701521 24.0597 0.784801 23.7464 0.861078 23.4372C1.08164 22.5434 1.75038 20.6283 2.88247 17.6919L4.66196 12.927L6.22085 8.60329C7.39261 5.11435 8.31685 2.66262 8.98302 1.27977C9.1243 0.986499 9.34238 0.732984 9.6344 0.589138C10.0978 0.360881 10.5847 0.25 11.0887 0.25M6.63998 17.1257C6.57907 17.1866 6.57907 17.2854 6.63998 17.3463V17.3463C6.7009 17.4072 6.79967 17.4072 6.86058 17.3463L6.92519 17.2817C6.95445 17.2524 6.97088 17.2128 6.97088 17.1714V17.1714C6.97088 17.0852 6.90104 17.0154 6.8149 17.0154V17.0154C6.77353 17.0154 6.73385 17.0318 6.7046 17.0611L6.63998 17.1257ZM2.5001 23.7657C2.41076 23.855 2.41076 23.9999 2.5001 24.0892V24.0892C2.58945 24.1786 2.7343 24.1786 2.82365 24.0892L2.91841 23.9945C2.96132 23.9516 2.98542 23.8934 2.98542 23.8327V23.8327C2.98542 23.7064 2.88299 23.6039 2.75664 23.6039V23.6039C2.69596 23.6039 2.63777 23.628 2.59487 23.6709L2.5001 23.7657ZM7.68378 7.97864C7.66047 8.00194 7.64738 8.03355 7.64738 8.06651V8.06651C7.64738 8.09946 7.66047 8.13107 7.68378 8.15437L7.79518 8.26578C7.83539 8.30598 7.90057 8.30598 7.94077 8.26578V8.26578C7.96008 8.24648 7.97092 8.22029 7.97092 8.19299V7.86723C7.97092 7.82703 7.93833 7.79444 7.89813 7.79444V7.79444C7.87882 7.79444 7.86031 7.8021 7.84666 7.81576L7.68378 7.97864ZM8.51506 14.1182C8.51506 15.5889 9.48569 16.3242 11.4122 16.3242C13.6172 16.3242 14.8264 15.8628 15.0289 14.951C15.0707 14.7628 15.0312 14.5669 14.9759 14.3822C13.6168 9.84251 12.6319 7.46905 12.0084 7.24908C11.9745 7.2371 11.9383 7.23559 11.9023 7.23559V7.23559C11.793 7.23559 11.684 7.26038 11.5927 7.32046C10.971 7.7294 10.5142 8.57561 10.2118 9.84847C10.1878 9.94934 10.1579 10.0489 10.12 10.1454L9.68715 11.2479C9.51239 11.693 9.14382 12.1808 9.02994 12.6452C9.00245 12.7574 8.97586 12.8837 8.95012 13.0242C8.88504 13.3793 8.54929 13.7441 8.51506 14.1035V14.1035M9.2446 6.79439C9.15845 6.79439 9.08862 6.86573 9.08862 6.95188V6.95188C9.08862 6.99204 9.1039 7.0313 9.13137 7.0606L9.19358 7.12695C9.2562 7.19375 9.36223 7.19375 9.42485 7.12695V7.12695C9.48336 7.06454 9.48178 6.96696 9.42129 6.90647L9.3549 6.84008C9.32565 6.81083 9.28597 6.79439 9.2446 6.79439V6.79439ZM10.2504 5.51493C10.1907 5.45523 10.0887 5.49751 10.0887 5.58194V5.58194C10.0887 5.63427 10.1311 5.6767 10.1834 5.6767H10.2365C10.2767 5.6767 10.3093 5.64411 10.3093 5.60391V5.60391C10.3093 5.5846 10.3016 5.56608 10.2879 5.55243L10.2504 5.51493ZM11.6475 4.47077V4.47077C11.5816 4.53668 11.5446 4.62608 11.5446 4.7193V4.79431C11.5446 5.1775 11.6816 5.43743 11.9687 5.56087C11.9895 5.56983 12.0121 5.57375 12.0348 5.57375H12.1182C12.175 5.57375 12.2211 5.52766 12.2211 5.47081V5.47081C12.2211 4.79431 12.0299 4.45606 11.6475 4.45606M12.1182 3.04424L12.1066 3.05581C12.0481 3.11431 12.0152 3.19366 12.0152 3.2764V3.3596C12.0152 3.48595 12.1176 3.58838 12.244 3.58838H12.266C12.3126 3.58838 12.3573 3.56986 12.3902 3.5369L12.4241 3.503C12.4354 3.49175 12.4506 3.48543 12.4666 3.48543V3.48543C12.506 3.48543 12.5348 3.44793 12.5209 3.41104C12.4532 3.23143 12.3242 3.10917 12.1034 3.04424M14.3241 8.79448V8.79448C14.3241 8.92229 14.4154 9.03188 14.5411 9.05504L14.7902 9.10093C14.8514 9.1122 14.9142 9.11072 14.9748 9.09659L15.17 9.05104C15.2603 9.02998 15.3242 8.9495 15.3242 8.8568V8.8568C15.3242 8.76093 15.256 8.67863 15.1618 8.66081L14.8227 8.59666C14.7943 8.59129 14.7655 8.58859 14.7366 8.58859H14.5904C14.5612 8.58859 14.5331 8.60021 14.5124 8.62089L14.3345 8.79878C14.3307 8.80262 14.3241 8.7999 14.3241 8.79448V8.79448ZM14.8536 10.9563C14.8536 11.0457 14.926 11.1181 15.0153 11.1181H15.03C15.1194 11.1181 15.1918 11.0457 15.1918 10.9563V10.9563C15.1918 10.867 15.1194 10.7946 15.03 10.7946H15.0153C14.926 10.7946 14.8536 10.867 14.8536 10.9563V10.9563ZM15.4124 6.91205V7.10323C15.4124 7.19257 15.4848 7.265 15.5742 7.265H15.6528C15.6987 7.265 15.736 7.22775 15.736 7.18181V7.18181C15.736 7.15974 15.7272 7.13858 15.7116 7.12298L15.5367 6.94807C15.523 6.93442 15.5045 6.92675 15.4852 6.92675H15.4271C15.419 6.92675 15.4124 6.92017 15.4124 6.91205V6.91205ZM15.7654 9.13273V9.48568C15.7654 9.54254 15.8115 9.58863 15.8683 9.58863V9.58863C16.2484 9.58863 16.4667 9.49432 16.5363 9.29282C16.5426 9.27465 16.5448 9.25535 16.5448 9.23612V9.23612C16.5448 9.1792 16.5229 9.12448 16.4835 9.08334L16.4193 9.01627C16.2984 8.88983 16.1104 8.8353 15.9578 8.92093C15.8281 8.9937 15.7654 9.07056 15.7654 9.14743M15.9552 12.6917C15.956 12.6917 15.9566 12.6923 15.9566 12.693V12.8477C15.9566 12.8891 15.973 12.9287 16.0022 12.958L16.1189 13.0747C16.2221 13.1779 16.3621 13.2358 16.508 13.2358H16.6532C16.7062 13.2358 16.7571 13.2148 16.7946 13.1773L16.9348 13.037C16.988 12.9838 16.9603 12.8927 16.8865 12.8781L15.955 12.6943C15.9534 12.694 15.9537 12.6917 15.9552 12.6917V12.6917ZM19.6696 18.4055C19.6463 18.4288 19.6332 18.4605 19.6332 18.4934V18.4934C19.6332 18.5264 19.6463 18.558 19.6696 18.5813L19.781 18.6927C19.8212 18.7329 19.8864 18.7329 19.9266 18.6927V18.6927C19.9459 18.6734 19.9567 18.6472 19.9567 18.6199V18.2941C19.9567 18.2539 19.9241 18.2213 19.8839 18.2213V18.2213C19.8646 18.2213 19.8461 18.229 19.8325 18.2427L19.6696 18.4055ZM20.5009 23.5711C20.5009 23.5695 20.5033 23.5693 20.5037 23.5709C20.5761 23.8444 20.7653 23.9875 21.022 24.0001C21.0461 24.0013 21.0693 23.9914 21.0863 23.9744L21.1112 23.9495C21.1441 23.9166 21.1627 23.8719 21.1627 23.8253V23.7305C21.1627 23.6306 21.123 23.5348 21.0524 23.4642L21.02 23.4319C20.9701 23.382 20.9024 23.3539 20.8318 23.3539H20.7671C20.7379 23.3539 20.7098 23.3655 20.6892 23.3862L20.5032 23.5721C20.5024 23.573 20.5009 23.5724 20.5009 23.5711V23.5711ZM3.2869 20.1847C3.22599 20.2456 3.22599 20.3443 3.2869 20.4053V20.4053C3.34782 20.4662 3.44658 20.4662 3.5075 20.4053L3.57211 20.3406C3.60136 20.3114 3.6178 20.2717 3.6178 20.2303V20.2303C3.6178 20.1442 3.54796 20.0744 3.46181 20.0744V20.0744C3.42044 20.0744 3.38077 20.0908 3.35151 20.1201L3.2869 20.1847ZM11.5593 18.9125C11.5593 19.0019 11.6317 19.0743 11.7211 19.0743V19.0743C11.8104 19.0743 11.8829 19.0019 11.8829 18.9125V18.9125C11.8829 18.8232 11.8104 18.7508 11.7211 18.7508V18.7508C11.6317 18.7508 11.5593 18.8232 11.5593 18.9125V18.9125Z" fill="currentColor"></path>
</svg>